# Blender 3.6.2
# www.blender.org
mtllib gameboy.mtl
o Cube.001
v 3.336408 -0.325515 1.000000
v 3.336408 -1.000000 1.000000
v -1.000000 -0.325515 -4.890936
v -1.000000 -1.000000 -4.890936
v -1.000000 -0.325515 1.000000
v -1.000000 -1.000000 1.000000
v 3.336408 -0.325515 -4.413238
v 2.858710 -0.325515 -4.890936
v 3.327229 -0.325515 -4.506433
v 3.300045 -0.325515 -4.596045
v 3.255901 -0.325515 -4.678633
v 3.196493 -0.325515 -4.751022
v 3.124104 -0.325515 -4.810430
v 3.041517 -0.325515 -4.854574
v 2.951904 -0.325515 -4.881758
v 2.858710 -1.000000 -4.890936
v 3.336408 -1.000000 -4.413238
v 2.951904 -1.000000 -4.881758
v 3.041517 -1.000000 -4.854574
v 3.124104 -1.000000 -4.810430
v 3.196493 -1.000000 -4.751022
v 3.255901 -1.000000 -4.678633
v 3.300045 -1.000000 -4.596045
v 3.327229 -1.000000 -4.506433
vn -0.0000 -1.0000 -0.0000
vn -0.0000 -0.0000 1.0000
vn -1.0000 -0.0000 -0.0000
vn -0.0000 1.0000 -0.0000
vn 1.0000 -0.0000 -0.0000
vn 0.9952 -0.0000 -0.0980
vn 0.9569 -0.0000 -0.2903
vn 0.8819 -0.0000 -0.4714
vn 0.7730 -0.0000 -0.6344
vn 0.6344 -0.0000 -0.7730
vn 0.4714 -0.0000 -0.8819
vn 0.2903 -0.0000 -0.9569
vn 0.0980 -0.0000 -0.9952
vn -0.0000 -0.0000 -1.0000
vt 0.375000 0.483860
vt 0.375000 0.512168
vt 0.375000 1.000000
vt 0.625000 0.750000
vt 0.375000 0.750000
vt 0.625000 0.000000
vt 0.375000 0.250000
vt 0.375000 0.000000
vt 0.629641 0.509010
vt 0.647167 0.500390
vt 0.625000 0.520273
vt 0.375000 0.520273
vt 0.625000 0.516318
vt 0.375000 0.516237
vt 0.625000 0.512515
vt 0.625000 0.509010
vt 0.375000 0.508130
vt 0.625000 0.500000
vt 0.375000 0.500114
vt 0.625000 0.487760
vt 0.375000 0.489560
vt 0.625000 0.482999
vt 0.625000 0.477833
vt 0.375000 0.478056
vt 0.625000 0.472460
vt 0.625000 0.250000
vt 0.375000 0.472460
vt 0.625000 1.000000
vt 0.625529 0.516318
vt 0.627096 0.512515
vt 0.633066 0.505938
vt 0.637240 0.503417
vt 0.642001 0.501543
vt 0.652540 0.500000
vt 0.875000 0.500000
vt 0.875000 0.750000
s 0
usemtl Material.001
f 19/1/1 23/2/1 6/3/1
f 1/4/2 6/3/2 2/5/2
f 5/6/3 4/7/3 6/8/3
f 11/9/4 15/10/4 1/4/4
f 7/11/5 2/5/5 17/12/5
f 17/12/6 9/13/6 7/11/6
f 24/14/7 10/15/7 9/13/7
f 23/2/8 11/16/8 10/15/8
f 22/17/9 12/18/9 11/16/9
f 21/19/10 13/20/10 12/18/10
f 20/21/11 14/22/11 13/20/11
f 19/1/12 15/23/12 14/22/12
f 18/24/13 8/25/13 15/23/13
f 3/26/14 16/27/14 4/7/14
f 6/3/1 4/7/1 16/27/1
f 16/27/1 18/24/1 19/1/1
f 19/1/1 20/21/1 21/19/1
f 21/19/1 22/17/1 23/2/1
f 23/2/1 24/14/1 17/12/1
f 17/12/1 2/5/1 6/3/1
f 6/3/1 16/27/1 19/1/1
f 19/1/1 21/19/1 23/2/1
f 23/2/1 17/12/1 6/3/1
f 1/4/2 5/28/2 6/3/2
f 5/6/3 3/26/3 4/7/3
f 1/4/4 7/11/4 9/29/4
f 9/29/4 10/30/4 11/9/4
f 11/9/4 12/31/4 13/32/4
f 13/32/4 14/33/4 15/10/4
f 15/10/4 8/34/4 3/35/4
f 3/35/4 5/36/4 1/4/4
f 1/4/4 9/29/4 11/9/4
f 11/9/4 13/32/4 15/10/4
f 15/10/4 3/35/4 1/4/4
f 7/11/5 1/4/5 2/5/5
f 17/12/6 24/14/6 9/13/6
f 24/14/7 23/2/7 10/15/7
f 23/2/8 22/17/8 11/16/8
f 22/17/9 21/19/9 12/18/9
f 21/19/10 20/21/10 13/20/10
f 20/21/11 19/1/11 14/22/11
f 19/1/12 18/24/12 15/23/12
f 18/24/13 16/27/13 8/25/13
f 3/26/14 8/25/14 16/27/14
o Cube.002
v 1.632474 -0.492711 -2.636289
v 1.632474 -0.096147 -2.636289
v 1.632474 -0.492711 -4.398487
v 1.632474 -0.096147 -4.398487
v 2.057822 -0.492711 -2.636289
v 2.057822 -0.096147 -2.636289
v 2.057822 -0.492711 -4.398487
v 2.057822 -0.096147 -4.398487
vn -1.0000 -0.0000 -0.0000
vn -0.0000 -0.0000 -1.0000
vn 1.0000 -0.0000 -0.0000
vn -0.0000 -0.0000 1.0000
vn -0.0000 -1.0000 -0.0000
vn -0.0000 1.0000 -0.0000
vt 0.625000 0.000000
vt 0.375000 0.250000
vt 0.375000 0.000000
vt 0.625000 0.250000
vt 0.375000 0.500000
vt 0.625000 0.500000
vt 0.375000 0.750000
vt 0.625000 0.750000
vt 0.375000 1.000000
vt 0.125000 0.750000
vt 0.125000 0.500000
vt 0.875000 0.500000
vt 0.625000 1.000000
vt 0.875000 0.750000
s 0
usemtl Material.002
f 26/37/15 27/38/15 25/39/15
f 28/40/16 31/41/16 27/38/16
f 32/42/17 29/43/17 31/41/17
f 30/44/18 25/45/18 29/43/18
f 31/41/19 25/46/19 27/47/19
f 28/48/20 30/44/20 32/42/20
f 26/37/15 28/40/15 27/38/15
f 28/40/16 32/42/16 31/41/16
f 32/42/17 30/44/17 29/43/17
f 30/44/18 26/49/18 25/45/18
f 31/41/19 29/43/19 25/46/19
f 28/48/20 26/50/20 30/44/20
o Cube.003
v 2.720860 -0.495243 -3.325389
v 2.720860 -0.098679 -3.325389
v 0.958705 -0.495243 -3.337584
v 0.958705 -0.098679 -3.337584
v 2.723804 -0.495243 -3.750726
v 2.723804 -0.098679 -3.750726
v 0.961649 -0.495243 -3.762921
v 0.961649 -0.098679 -3.762921
vn -0.0069 -0.0000 1.0000
vn -1.0000 -0.0000 -0.0069
vn 0.0069 -0.0000 -1.0000
vn 1.0000 -0.0000 0.0069
vn -0.0000 -1.0000 -0.0000
vn -0.0000 1.0000 -0.0000
vt 0.625000 0.000000
vt 0.375000 0.250000
vt 0.375000 0.000000
vt 0.625000 0.250000
vt 0.375000 0.500000
vt 0.625000 0.500000
vt 0.375000 0.750000
vt 0.625000 0.750000
vt 0.375000 1.000000
vt 0.125000 0.750000
vt 0.125000 0.500000
vt 0.875000 0.750000
vt 0.625000 1.000000
vt 0.875000 0.500000
s 0
usemtl Material.003
f 34/51/21 35/52/21 33/53/21
f 36/54/22 39/55/22 35/52/22
f 40/56/23 37/57/23 39/55/23
f 38/58/24 33/59/24 37/57/24
f 39/55/25 33/60/25 35/61/25
f 40/56/26 34/62/26 38/58/26
f 34/51/21 36/54/21 35/52/21
f 36/54/22 40/56/22 39/55/22
f 40/56/23 38/58/23 37/57/23
f 38/58/24 34/63/24 33/59/24
f 39/55/25 37/57/25 33/60/25
f 40/56/26 36/64/26 34/62/26
o Plane
v -0.751719 -0.317429 0.716800
v 3.102043 -0.317429 0.716800
v -0.751719 -0.317429 -2.263948
v 3.102043 -0.317429 -2.263948
vn -0.0000 1.0000 -0.0000
vt 1.000000 0.000000
vt 0.000000 1.000000
vt 0.000000 0.000000
vt 1.000000 1.000000
s 0
usemtl Material.004
f 42/65/27 43/66/27 41/67/27
f 42/65/27 44/68/27 43/66/27
